<svg width="108" height="60" viewBox="0 0 108 60" fill="none" xmlns="http://www.w3.org/2000/svg">
<g clip-path="url(#clip0)">
<path d="M0.219971 58.8V48.8H2.43997V49.67C2.78903 49.2909 3.21249 48.9878 3.68392 48.7796C4.15535 48.5714 4.66463 48.4626 5.17997 48.46C5.74944 48.4689 6.31071 48.5972 6.82748 48.8366C7.34425 49.0761 7.80501 49.4213 8.17997 49.85C8.87714 50.8999 9.20116 52.1538 9.09997 53.41V58.8H6.71997V53.85C6.71997 53.02 6.71997 50.64 4.71997 50.64C4.39502 50.6461 4.07613 50.7291 3.78936 50.882C3.50259 51.0349 3.25608 51.2536 3.06997 51.52C2.69746 52.2904 2.54189 53.1478 2.61997 54V58.8H0.219971ZM12.22 52.93H17.76C17.6755 52.2657 17.3453 51.657 16.8345 51.2239C16.3237 50.7908 15.6692 50.5647 15 50.59C14.3293 50.594 13.6807 50.8304 13.1647 51.2589C12.6487 51.6874 12.2972 52.2815 12.17 52.94L12.22 52.93ZM12.24 54.87C12.417 55.4639 12.7816 55.9845 13.279 56.354C13.7765 56.7235 14.3803 56.9221 15 56.92C15.4669 56.9483 15.9322 56.843 16.3413 56.6163C16.7504 56.3896 17.0865 56.0509 17.31 55.64H19.84C19.4874 56.6463 18.8339 57.5199 17.9681 58.1424C17.1024 58.7649 16.0662 59.1062 15 59.12C14.3028 59.1227 13.6121 58.987 12.9678 58.7208C12.3235 58.4547 11.7384 58.0633 11.2463 57.5695C10.7543 57.0756 10.3652 56.489 10.1015 55.8437C9.83774 55.1984 9.70467 54.5071 9.70997 53.81C9.69939 53.1058 9.82798 52.4063 10.0884 51.7519C10.3487 51.0975 10.7358 50.5009 11.2273 49.9964C11.7188 49.4919 12.305 49.0894 12.9524 48.812C13.5999 48.5346 14.2957 48.3878 15 48.38C16.3837 48.4036 17.7027 48.9707 18.6719 49.9586C19.6411 50.9465 20.1828 52.276 20.18 53.66C20.1625 54.0652 20.1022 54.4675 20 54.86L12.24 54.87ZM23.24 58.81H24.72L26.62 52.31L28.5 58.81H30L33.66 48.81H31.13L29.29 54.9L27.67 48.78H25.71L24.07 54.9L22.25 48.78H19.65L23.24 58.81ZM40.57 53.67C40.5324 54.0861 40.5821 54.5054 40.7159 54.9011C40.8497 55.2969 41.0648 55.6603 41.3472 55.9681C41.6296 56.276 41.9732 56.5214 42.3559 56.6888C42.7387 56.8561 43.1522 56.9417 43.57 56.94C44.3595 56.877 45.0962 56.5188 45.6335 55.9369C46.1708 55.355 46.4692 54.592 46.4692 53.8C46.4692 53.008 46.1708 52.245 45.6335 51.6631C45.0962 51.0812 44.3595 50.7231 43.57 50.66C42.7743 50.66 42.0113 50.9761 41.4487 51.5387C40.886 52.1013 40.57 52.8644 40.57 53.66V53.67ZM38.32 45.44H40.72V49.69C41.5566 48.8815 42.6766 48.4328 43.84 48.44C45.2051 48.487 46.4965 49.0714 47.4329 50.0659C48.3694 51.0604 48.8751 52.3845 48.84 53.75C48.84 55.75 47.52 59.13 43.84 59.13C43.1949 59.1669 42.5505 59.047 41.9618 58.7806C41.3732 58.5141 40.8579 58.1091 40.46 57.6V58.8H38.26L38.32 45.44ZM57.81 53.77C57.836 53.3696 57.7795 52.968 57.6439 52.5903C57.5084 52.2126 57.2967 51.8668 57.022 51.5742C56.7473 51.2817 56.4154 51.0487 56.0469 50.8897C55.6785 50.7308 55.2813 50.6492 54.88 50.65C54.4695 50.6492 54.0632 50.7326 53.6863 50.8951C53.3093 51.0576 52.9698 51.2957 52.6885 51.5948C52.4073 51.8938 52.1905 52.2473 52.0514 52.6335C51.9123 53.0197 51.854 53.4304 51.88 53.84C51.8679 54.2415 51.9366 54.6413 52.082 55.0157C52.2273 55.3901 52.4464 55.7316 52.7262 56.0198C53.006 56.3079 53.3408 56.537 53.7107 56.6934C54.0807 56.8497 54.4783 56.9302 54.88 56.93C55.2818 56.9212 55.6778 56.8317 56.0445 56.6669C56.4111 56.5021 56.7408 56.2652 57.0141 55.9705C57.2875 55.6757 57.4987 55.329 57.6354 54.951C57.7722 54.573 57.8315 54.1714 57.81 53.77V53.77ZM60.08 58.77H57.9V57.56C57.4486 58.0392 56.9071 58.4246 56.3065 58.694C55.7059 58.9634 55.058 59.1116 54.4 59.13C51.82 59.13 49.53 57.07 49.53 53.73C49.4991 53.0514 49.6051 52.3736 49.8417 51.7369C50.0784 51.1002 50.4408 50.5176 50.9074 50.024C51.374 49.5303 51.9352 49.1357 52.5576 48.8635C53.1799 48.5914 53.8507 48.4474 54.53 48.44C55.1662 48.4355 55.7954 48.5733 56.3715 48.8432C56.9476 49.1131 57.4562 49.5083 57.86 50V48.78H60.1L60.08 58.77ZM63.76 45.41H61.36V58.8H63.76V45.41ZM72.76 53.74C72.7859 53.3404 72.7297 52.9397 72.5948 52.5627C72.4598 52.1856 72.249 51.8403 71.9754 51.5479C71.7017 51.2555 71.3711 51.0223 71.0038 50.8627C70.6365 50.7031 70.2404 50.6205 69.84 50.62C69.4295 50.6192 69.0232 50.7026 68.6463 50.8651C68.2693 51.0276 67.9298 51.2657 67.6485 51.5648C67.3673 51.8638 67.1505 52.2173 67.0114 52.6035C66.8723 52.9897 66.814 53.4004 66.84 53.81C66.8279 54.2115 66.8966 54.6113 67.042 54.9857C67.1873 55.3602 67.4064 55.7016 67.6862 55.9898C67.966 56.2779 68.3008 56.507 68.6707 56.6634C69.0407 56.8197 69.4383 56.9002 69.84 56.9C70.241 56.8899 70.6359 56.7994 71.0014 56.634C71.3668 56.4686 71.6954 56.2316 71.9676 55.937C72.2399 55.6423 72.4503 55.2961 72.5864 54.9188C72.7225 54.5414 72.7815 54.1406 72.76 53.74V53.74ZM75.04 58.74H72.84V57.56C72.3886 58.0392 71.8471 58.4246 71.2465 58.694C70.6459 58.9634 69.998 59.1116 69.34 59.13C66.76 59.13 64.47 57.07 64.47 53.73C64.4391 53.0514 64.5451 52.3736 64.7817 51.7369C65.0184 51.1002 65.3808 50.5176 65.8474 50.024C66.314 49.5303 66.8752 49.1357 67.4976 48.8635C68.1199 48.5914 68.7907 48.4474 69.47 48.44C70.113 48.4288 70.7503 48.5633 71.3339 48.8335C71.9175 49.1036 72.4324 49.5025 72.84 50V50V48.78H75.04V58.74ZM76.32 58.74H78.72V54C78.6301 53.1397 78.7789 52.2713 79.15 51.49C79.3351 51.2249 79.58 51.0071 79.8649 50.8542C80.1498 50.7014 80.4667 50.6177 80.79 50.61C82.79 50.61 82.79 52.99 82.79 53.82V58.8H85.19V53.38C85.2882 52.1226 84.9607 50.8687 84.26 49.82C83.885 49.3913 83.4242 49.0461 82.9075 48.8066C82.3907 48.5672 81.8294 48.4389 81.26 48.43C80.7446 48.4326 80.2353 48.5414 79.7639 48.7496C79.2925 48.9578 78.869 49.2609 78.52 49.64V48.77H76.36V58.77L76.32 58.74ZM93.79 55.5C93.5785 55.9094 93.2609 56.2545 92.8703 56.4991C92.4798 56.7436 92.0306 56.8786 91.57 56.89C91.1639 56.8905 90.762 56.8085 90.3886 56.649C90.0152 56.4896 89.6781 56.256 89.3976 55.9624C89.1171 55.6688 88.8991 55.3214 88.7569 54.9411C88.6146 54.5608 88.551 54.1556 88.57 53.75C88.5398 53.3501 88.5922 52.9483 88.7241 52.5696C88.856 52.1909 89.0645 51.8434 89.3366 51.5488C89.6086 51.2542 89.9385 51.0189 90.3055 50.8573C90.6726 50.6958 91.069 50.6116 91.47 50.61C91.9588 50.5977 92.4404 50.7296 92.8548 50.9892C93.2691 51.2489 93.5979 51.6248 93.8 52.07H96.51C96.1744 51.0066 95.5088 50.0776 94.6099 49.4177C93.7109 48.7579 92.6251 48.4014 91.51 48.4C90.0924 48.4 88.7329 48.9631 87.7305 49.9655C86.7281 50.9679 86.165 52.3274 86.165 53.745C86.165 55.1626 86.7281 56.5221 87.7305 57.5245C88.7329 58.5269 90.0924 59.09 91.51 59.09C92.6174 59.1034 93.7 58.7622 94.5996 58.1162C95.4992 57.4703 96.1686 56.5536 96.51 55.5H93.78H93.79ZM99.32 52.9H104.86C104.779 52.2427 104.457 51.6387 103.956 51.2048C103.456 50.7708 102.812 50.5376 102.15 50.55C101.479 50.554 100.831 50.7904 100.315 51.2189C99.7987 51.6474 99.4472 52.2415 99.32 52.9V52.9ZM99.39 54.83C99.5623 55.4275 99.9253 55.9521 100.424 56.3241C100.922 56.696 101.528 56.8947 102.15 56.89C102.617 56.9183 103.082 56.813 103.491 56.5863C103.9 56.3596 104.236 56.0209 104.46 55.61H107C106.647 56.6163 105.994 57.4899 105.128 58.1124C104.262 58.7349 103.226 59.0762 102.16 59.09C101.463 59.0927 100.772 58.957 100.128 58.6908C99.4835 58.4247 98.8984 58.0333 98.4063 57.5395C97.9143 57.0456 97.5252 56.459 97.2615 55.8137C96.9977 55.1684 96.8647 54.4771 96.87 53.78C96.8581 53.0766 96.985 52.3777 97.2435 51.7234C97.5021 51.0691 97.8871 50.4722 98.3766 49.9669C98.8661 49.4616 99.4505 49.0578 100.096 48.7787C100.742 48.4995 101.437 48.3504 102.14 48.34C103.525 48.3611 104.845 48.9273 105.815 49.9157C106.785 50.9042 107.325 52.2353 107.32 53.62C107.318 54.0272 107.271 54.433 107.18 54.83H99.39ZM55.66 14L67.36 14.76L66.91 15.54L27 18.18L25.22 21.26L62.3 23.6L61.85 24.38L41.21 25.58L42.77 31.44L57.28 32.33L56.83 33.11L43.45 34L44.71 39H70.25C76.4 39 87.45 34.93 88.74 26.39C89.46 21.58 85.27 19.72 83.59 19.52C91.52 17.28 94.23 11.95 94.8 9.83001C96.71 2.83001 91.8 0.460012 85.14 0.460012H63.5L60.78 5.18001L72.44 6.00001L72 6.78001L59.39 7.59001L55.66 14ZM76.6 8.00001H80.17C81.71 8.00001 82.87 9.80001 82 11.91C81.06 14.19 78.5 15.31 76 15.33H72.31L76.6 8.00001ZM72.35 22.69C73.64 22.69 75.47 24.03 74.47 26.62C73.39 29.41 69.88 30.39 67.92 30.39H63.69L68.13 22.69H72.35ZM16.78 35.92L15 39H33.35L35.91 34.59L16.78 35.92ZM35.44 3.52001L53.08 4.63001L52 0.450012H37.21L35.44 3.52001ZM32.1 9.31001L30.32 12.39L55.53 14L53.92 7.93001L32.1 9.31001ZM21.89 27L20.11 30.09L37.87 31.09L41.08 25.55L21.89 27Z" fill="#E61338"/>
</g>
<defs>
<clipPath id="clip0">
<rect width="107.62" height="59.35" fill="white"/>
</clipPath>
</defs>
</svg>
