<svg width="170" height="29" viewBox="0 0 170 29" fill="none" xmlns="http://www.w3.org/2000/svg">
<g clip-path="url(#clip0)">
<path d="M29.49 5.21H26.75V27.93H29.49V5.21Z" fill="black"/>
<path d="M148.3 5.21H145.56V27.93H148.3V5.21Z" fill="black"/>
<path d="M158.23 0V2.39999H169.1V0H158.23Z" fill="black"/>
<path d="M169.1 7.61V5.21H155.49V27.93H169.1V25.52H158.22V17.77H168.87V15.37H158.22V7.61H169.1Z" fill="black"/>
<path d="M140.95 5.21H120.98V7.95H129.6V27.93H132.33V7.95H140.95V5.21Z" fill="black"/>
<path d="M90.7 5.21V5.22L82.57 17.18L74.44 5.21H71.69V27.93H74.43V10.03L82.57 21.47L90.7 10.05V27.93H93.44V5.21H90.7Z" fill="black"/>
<path d="M21.21 5.21H18.48L10.61 24.56L2.74 5.21H0L9.24 27.93H11.97L21.21 5.21Z" fill="black"/>
<path d="M101.26 27.93L103.94 21.93H116.09L118.76 27.93H121.61L111.44 5.21H108.59L98.41 27.93H101.26ZM110 8.38L114.92 19.38H105.1L110 8.38Z" fill="black"/>
<path d="M54.34 22.67C53.4741 23.7128 52.3889 24.5519 51.1617 25.1275C49.9345 25.7031 48.5955 26.001 47.24 26C42.1 26 38.37 21.77 38.37 16.55C38.37 11.33 42.1 7.1 47.24 7.1C48.5546 7.09935 49.8541 7.38013 51.0511 7.92346C52.2482 8.46678 53.315 9.26007 54.18 10.25L55.94 8.49C54.8493 7.26957 53.5132 6.29313 52.0192 5.62453C50.5251 4.95592 48.9068 4.61021 47.27 4.61C40.78 4.63 36 10 36 16.57C36 23.14 40.82 28.51 47.31 28.51C48.9907 28.5084 50.6511 28.143 52.1771 27.4387C53.7031 26.7344 55.0584 25.7079 56.15 24.43L54.34 22.67Z" fill="black"/>
</g>
<defs>
<clipPath id="clip0">
<rect width="169.1" height="28.51" fill="white"/>
</clipPath>
</defs>
</svg>
