<svg width="190" height="30" viewBox="0 0 190 30" fill="none" xmlns="http://www.w3.org/2000/svg">
<g clip-path="url(#clip0)">
<path d="M65.19 24.76C70.37 24.76 74.96 21.28 74.96 15.36C74.96 9.44 70.37 6 65.19 6C60.01 6 55.42 9.49 55.42 15.4C55.42 21.31 60.01 24.8 65.19 24.8V24.76ZM31.77 24.44H35.55L26.86 6.32H23.23L15.23 24.39H18.58L20.32 20.31H29.91L31.77 24.44ZM125.5 6.32H111.78V24.39H125.78V21.5H115V16.78H124.17V13.89H115V9.21H125.5V6.32ZM77.43 22.6C79.3751 24.0842 81.7749 24.8476 84.22 24.76C88.12 24.76 91.28 22.65 91.28 19.35C91.28 12.47 81.33 14.67 81.33 10.91C81.33 9.85 82.2 8.98 84.49 8.98C86.3865 8.96236 88.232 9.59399 89.72 10.77L91.05 8.11C89.1637 6.68732 86.852 5.94377 84.49 6C79.67 6 77.7 8.71 77.7 11.36C77.7 17.6 87.7 15.81 87.7 19.53C87.7 21.09 86.14 21.77 84.35 21.77C82.2759 21.7523 80.2577 21.0959 78.57 19.89L77.43 22.6ZM46 9.17C46.9558 9.18576 47.8986 9.393 48.7729 9.77946C49.6472 10.1659 50.4351 10.7238 51.09 11.42L53.34 9.22C52.4279 8.15634 51.286 7.31379 50.0006 6.75598C48.7152 6.19817 47.3199 5.93967 45.92 6C40.74 6 36.15 9.49 36.15 15.4C36.15 21.31 40.69 24.8 45.87 24.8C48.6664 24.7705 51.3567 23.7256 53.44 21.86L51.65 19.3C50.038 20.6574 48.0249 21.4479 45.92 21.55C44.2783 21.5394 42.7081 20.8771 41.5547 19.7087C40.4014 18.5404 39.7594 16.9617 39.77 15.32C39.7806 13.6783 40.443 12.1081 41.6113 10.9547C42.7797 9.80138 44.3583 9.15939 46 9.17V9.17ZM65.19 21.55C63.9697 21.5323 62.7819 21.1542 61.7759 20.4633C60.7699 19.7725 59.9905 18.7996 59.5358 17.6671C59.081 16.5346 58.9712 15.2929 59.2201 14.0982C59.469 12.9034 60.0656 11.8089 60.9347 10.9522C61.8039 10.0955 62.9069 9.51482 64.1051 9.28318C65.3033 9.05154 66.5433 9.17927 67.6691 9.6503C68.795 10.1213 69.7565 10.9147 70.4327 11.9306C71.109 12.9465 71.4699 14.1396 71.47 15.36C71.4783 16.1828 71.3209 16.9989 71.0071 17.7596C70.6933 18.5202 70.2295 19.2099 69.6435 19.7876C69.0575 20.3652 68.3611 20.819 67.596 21.1217C66.8309 21.4245 66.0126 21.5702 65.19 21.55ZM99.4 9.21V24.39H102.61V9.21H108.95V6.32H93.25V9.21H99.4ZM3.40001 6.32H0.200012V24.39H13V21.5H3.40001V6.32ZM24.93 9.49L28.6 17.49H21.49L24.93 9.49Z" fill="black"/>
<path d="M188.52 20.57C188.178 20.3897 187.81 20.2616 187.43 20.19C186.94 20.05 186.79 19.46 186.61 19.38C186.25 19.24 185.92 19.79 185.7 19.72C185.48 19.65 185.4 18.92 185.21 18.86C184.86 18.73 184.49 19.28 184.27 19.21C184.05 19.14 183.93 18.43 183.76 18.36C183.4 18.23 183.03 18.8 182.76 18.73C182.49 18.66 182.48 17.92 182.3 17.85C181.92 17.7 181.56 18.29 181.22 18.23C180.744 18.1595 180.292 17.9779 179.9 17.7C179.72 17.58 179.35 17.28 179.32 17.27H179.22C179.22 17.27 179.13 17.34 179.14 17.48C179.139 17.5 179.139 17.52 179.14 17.54C179.23 18.3 180.53 18.84 182.03 19.28C183.378 19.6135 184.704 20.031 186 20.53C186.246 20.6226 186.458 20.7862 186.61 21C186.651 21.0587 186.673 21.1285 186.673 21.2C186.673 21.2715 186.651 21.3413 186.61 21.4C186.46 21.62 186.11 21.64 185.72 21.48H185.65C185.461 21.3863 185.296 21.2493 185.17 21.08C185.1 20.9709 184.994 20.8896 184.87 20.85C184.781 20.8472 184.693 20.8626 184.61 20.8953C184.528 20.928 184.453 20.9772 184.39 21.04C184.18 21.2 183.97 21.39 183.82 21.36C183.56 21.3 183.47 20.89 183.32 20.63C183.299 20.5861 183.27 20.5467 183.234 20.5141C183.198 20.4815 183.156 20.4563 183.11 20.44C182.85 20.37 182.57 20.6 182.34 20.76C182.242 20.8515 182.114 20.9047 181.98 20.91C181.91 20.8862 181.853 20.8359 181.82 20.77C181.65 20.53 181.55 20.03 181.35 19.98C181.235 19.9705 181.118 19.9861 181.01 20.0258C180.901 20.0655 180.802 20.1283 180.72 20.21C180.613 20.2988 180.499 20.379 180.38 20.45C180.325 20.4683 180.265 20.4683 180.21 20.45C180.09 20.45 180 20.27 179.91 20.09C179.82 19.91 179.69 19.56 179.56 19.51C179.13 19.34 178.56 19.99 177.95 19.67C176.44 18.67 176.34 18.02 175.66 17.58C175.427 17.4378 175.174 17.33 174.91 17.26H174.79C174.071 17.1866 173.345 17.2305 172.64 17.39C171.33 17.53 171.39 16.39 171.39 16.39C171.999 16.6223 172.671 16.6223 173.28 16.39C173.752 16.1799 174.263 16.0714 174.78 16.0714C175.297 16.0714 175.808 16.1799 176.28 16.39C177.017 16.6406 177.82 16.6158 178.54 16.32H178.7C178.798 16.2948 178.902 16.2935 179.001 16.3161C179.1 16.3387 179.192 16.3846 179.27 16.45C179.65 16.69 180.01 16.95 180.19 16.86C180.37 16.77 180.38 15.96 180.87 15.8C181.09 15.73 181.71 16.34 181.98 16.24C182.25 16.14 182.17 15.34 182.66 15.18C182.88 15.11 183.49 15.72 183.77 15.62C184.05 15.52 183.95 14.72 184.44 14.55C184.67 14.47 185.28 15.09 185.54 14.99C185.8 14.89 185.73 14.09 186.22 13.92C186.45 13.85 187.06 14.46 187.33 14.36C187.59 14.26 187.56 14.05 187.77 13.51C187.821 13.3924 187.9 13.2893 188 13.21C188.218 13.0671 188.383 12.8567 188.469 12.611C188.556 12.3653 188.56 12.098 188.48 11.85C188.24 11.32 187.74 11.33 186.64 11.56C185.72 11.75 179.98 13.01 179.98 13.01C179.09 11.36 178.48 12.45 177.16 12.29C176.32 12.19 174.96 11.29 172.81 13.29C172.319 13.154 171.805 13.1185 171.3 13.1855C170.795 13.2525 170.309 13.4207 169.87 13.68C167.237 12.447 164.357 11.8346 161.45 11.89C158.235 12.0382 155.049 12.5686 151.96 13.47C150.68 13.81 149.5 13.74 149.21 12.97C148.92 12.2 149.95 11.34 151.89 10.4C156.71 8.08999 159.89 8.62999 166.4 5.20999C169.87 3.36999 170.1 1.20999 170.09 0.689993C170.106 0.616722 170.095 0.539994 170.057 0.474956C170.02 0.409919 169.959 0.361299 169.887 0.338693C169.816 0.316088 169.738 0.321141 169.67 0.352855C169.602 0.384568 169.549 0.440637 169.52 0.509993C168.35 2.13999 168.05 2.00999 167.69 1.63999C167.33 1.26999 166.88 1.92999 166.35 2.31999C165.82 2.70999 165.88 2.25999 165.56 2.04999C165.01 1.69999 164.56 2.73999 164.08 2.94999C163.6 3.15999 163.43 2.94999 163.25 2.72999C163.177 2.66032 163.081 2.62142 162.98 2.62142C162.879 2.62142 162.783 2.66032 162.71 2.72999C161.61 3.77999 161.44 3.65999 161.11 3.30999C160.78 2.95999 160.73 2.86999 160.02 3.58999C159.6 4.00999 158.91 4.50999 158.71 3.97999C158.51 3.44999 158.32 3.14999 157.3 4.07999C156.7 4.62999 156.3 4.66999 156.11 4.40999C155.92 4.14999 155.95 3.40999 155 4.18999C154.05 4.96999 153.72 5.25999 153.44 4.60999C153.16 3.95999 152.54 4.50999 152.07 4.95999C151.82 5.19999 151.41 5.76999 151.07 5.18999C150.73 4.60999 150.21 5.18999 149.53 5.92999C149.14 6.33999 148.89 6.15999 148.53 5.92999C148.17 5.69999 147.63 6.72999 146.99 7.39999C146.87 7.50999 146.7 7.58999 146.31 7.32999C145.92 7.06999 145.03 8.72999 144.81 9.15999C144.45 9.84999 144.04 8.97999 143.62 9.59999C142.307 11.3121 141.494 13.3542 141.27 15.5C140.92 18.91 142.18 21.68 143.46 22.71C143.46 22.71 143.31 23.09 143.13 23.57C142.926 24.0579 142.822 24.5813 142.822 25.11C142.822 25.6387 142.926 26.1621 143.13 26.65C143.57 27.5 144.62 28.9 145 27.58C145.19 26.93 145.36 26.97 146 27.41C146.94 28.07 146.71 26.87 146.9 26.51C147.09 26.15 147.19 26.16 147.96 26.67C148.41 26.96 148.55 26.57 148.68 26.02C149.09 24.32 148.28 23.91 147.5 23.75C147.106 23.6872 146.704 23.6872 146.31 23.75C147.58 21.82 147.73 20.75 146.31 19.75C146.398 19.7036 146.496 19.6793 146.595 19.6793C146.694 19.6793 146.792 19.7036 146.88 19.75C147.23 19.8992 147.522 20.1592 147.71 20.49C147.902 20.8805 147.99 21.3139 147.965 21.7484C147.941 22.1828 147.805 22.6035 147.57 22.97C147.948 22.9617 148.319 23.0656 148.638 23.2685C148.956 23.4714 149.208 23.7643 149.36 24.11C151.469 24.4535 153.612 24.5308 155.74 24.34C156.37 24.24 156.66 23.66 157.3 23.08C157.94 22.5 158.79 21.73 159.51 22.26C158.934 22.4417 158.427 22.7928 158.054 23.2673C157.681 23.7419 157.46 24.3178 157.42 24.92C157.414 25.2827 157.504 25.6406 157.679 25.9581C157.855 26.2756 158.11 26.5417 158.42 26.73C158.917 27.2471 159.263 27.8904 159.42 28.59C159.69 29.35 160.27 29.38 160.42 28.65C160.59 27.65 160.9 27.83 161.29 28.26C161.68 28.69 162.13 28.7 162.13 27.95C162.13 27.2 162.35 26.89 163.13 27.71C163.45 28.04 163.83 28.03 163.83 27.31C163.83 26.43 164.22 26.51 164.71 26.89C164.88 27.03 165 27.12 165.09 27.11C165.48 27.11 165.74 26.33 165.44 25.73C165.29 25.43 165.07 24.98 163.05 24.57C162.39 24.44 162.5 23.98 162.5 23.98C167.43 24.22 171.62 23.6 174.37 21.93C177.648 22.5624 180.982 22.854 184.32 22.8C185.64 22.8832 186.962 22.6855 188.2 22.22C189.17 21.67 189 20.88 188.52 20.57ZM178.31 12.89C178.345 12.7778 178.411 12.6781 178.502 12.6035C178.593 12.5288 178.703 12.4824 178.82 12.47C178.961 12.4826 179.093 12.543 179.195 12.6412C179.297 12.7395 179.362 12.8696 179.38 13.01L178.47 13.21C178.21 13.27 178.21 13.13 178.31 12.89ZM176 12.82C176.23 12.8202 176.454 12.8862 176.648 13.0103C176.841 13.1344 176.994 13.3113 177.09 13.52L175.73 13.82C175.46 13.88 175.28 13.76 175.26 13.55C175.263 13.3555 175.342 13.1698 175.48 13.0332C175.619 12.8966 175.805 12.82 176 12.82V12.82ZM149.8 6.99999C150.234 6.78908 150.695 6.63772 151.17 6.54999C151.26 6.54999 151.33 6.54999 151.3 6.65999C151.23 6.96999 151.16 7.28999 151.09 7.60999C151.088 7.62875 151.081 7.64668 151.07 7.66205C151.059 7.67742 151.045 7.68971 151.027 7.69774C151.01 7.70578 150.992 7.70928 150.973 7.70793C150.954 7.70657 150.936 7.70039 150.92 7.68999L149.8 7.14999C149.73 7.13999 149.72 7.06999 149.8 6.99999ZM147.73 7.99999C148.165 7.79063 148.626 7.63933 149.1 7.54999C149.19 7.54999 149.25 7.54999 149.23 7.65999C149.157 7.96666 149.083 8.28333 149.01 8.60999C149.007 8.62727 149 8.64363 148.99 8.65774C148.98 8.67185 148.966 8.68329 148.951 8.69111C148.935 8.69893 148.918 8.70291 148.9 8.70271C148.883 8.70252 148.865 8.69816 148.85 8.68999L147.73 8.14999C147.65 8.11999 147.65 7.99999 147.73 7.99999V7.99999ZM147.26 10.75C147.17 10.75 147.17 10.64 147.26 10.6C147.694 10.3886 148.155 10.2372 148.63 10.15C148.73 10.15 148.79 10.15 148.77 10.26C148.69 10.57 148.62 10.89 148.55 11.26C148.55 11.2786 148.545 11.2968 148.535 11.3126C148.525 11.3284 148.511 11.3411 148.495 11.3494C148.478 11.3577 148.46 11.3613 148.441 11.3596C148.423 11.3579 148.405 11.3511 148.39 11.34L147.26 10.75ZM147.76 11.95C147.68 12.26 147.61 12.58 147.54 12.9C147.538 12.9188 147.531 12.9367 147.52 12.952C147.509 12.9674 147.495 12.9797 147.477 12.9877C147.46 12.9958 147.442 12.9993 147.423 12.9979C147.404 12.9966 147.386 12.9904 147.37 12.98L146.25 12.44C146.17 12.44 146.16 12.33 146.25 12.29C146.685 12.0839 147.146 11.9359 147.62 11.85C147.72 11.83 147.78 11.88 147.76 12V11.95ZM145.88 9.24999C146.315 9.04084 146.776 8.88955 147.25 8.79999C147.35 8.79999 147.41 8.79999 147.39 8.90999C147.31 9.21999 147.24 9.52999 147.17 9.85999C147.168 9.87875 147.161 9.89668 147.15 9.91205C147.139 9.92742 147.125 9.93971 147.107 9.94774C147.09 9.95578 147.072 9.95928 147.053 9.95793C147.034 9.95657 147.016 9.95039 147 9.93999L145.88 9.39999C145.8 9.35999 145.8 9.29999 145.88 9.24999V9.24999ZM144.46 10.88C144.895 10.6708 145.356 10.5196 145.83 10.43C145.93 10.43 145.99 10.43 145.97 10.54C145.89 10.85 145.83 11.17 145.75 11.54C145.747 11.5573 145.74 11.5736 145.73 11.5877C145.72 11.6018 145.706 11.6133 145.691 11.6211C145.675 11.6289 145.658 11.6329 145.64 11.6327C145.623 11.6325 145.605 11.6282 145.59 11.62L144.46 11C144.38 11 144.38 10.93 144.46 10.89V10.88ZM143.93 12.76C144.365 12.5517 144.826 12.4004 145.3 12.31C145.39 12.31 145.45 12.31 145.43 12.42C145.36 12.73 145.28 13.05 145.22 13.42C145.218 13.4388 145.211 13.4567 145.2 13.472C145.189 13.4874 145.175 13.4997 145.157 13.5077C145.14 13.5158 145.122 13.5193 145.103 13.5179C145.084 13.5166 145.066 13.5104 145.05 13.5L143.93 12.96C143.84 12.87 143.84 12.8 143.92 12.76H143.93ZM144.17 14.76C144.09 14.76 144.09 14.65 144.17 14.61C144.605 14.3995 145.065 14.2482 145.54 14.16C145.63 14.16 145.69 14.16 145.68 14.27C145.6 14.58 145.53 14.9 145.46 15.27C145.457 15.2873 145.45 15.3036 145.44 15.3177C145.43 15.3318 145.416 15.3433 145.401 15.3511C145.385 15.3589 145.368 15.3629 145.35 15.3627C145.333 15.3625 145.315 15.3582 145.3 15.35L144.17 14.76ZM146.6 17.04C146.598 17.0588 146.591 17.0767 146.58 17.092C146.569 17.1074 146.555 17.1197 146.537 17.1277C146.52 17.1358 146.502 17.1393 146.483 17.1379C146.464 17.1366 146.446 17.1304 146.43 17.12L145.31 16.58C145.22 16.58 145.22 16.47 145.31 16.43C145.741 16.222 146.199 16.074 146.67 15.99C146.77 15.99 146.83 15.99 146.81 16.09C146.73 16.45 146.66 16.77 146.6 17.09V17.04ZM146.48 14.24C146.4 14.24 146.4 14.14 146.48 14.1C146.914 13.8877 147.375 13.7363 147.85 13.65C147.94 13.65 148 13.65 147.99 13.76C147.91 14.07 147.84 14.39 147.77 14.76C147.768 14.7788 147.761 14.7967 147.75 14.812C147.739 14.8274 147.725 14.8397 147.707 14.8477C147.69 14.8558 147.672 14.8593 147.653 14.8579C147.634 14.8566 147.616 14.8504 147.6 14.84L146.48 14.24ZM148.63 18.09C148.628 18.1088 148.621 18.1267 148.61 18.142C148.599 18.1574 148.585 18.1697 148.567 18.1777C148.55 18.1858 148.532 18.1893 148.513 18.1879C148.494 18.1866 148.476 18.1804 148.46 18.17L147.34 17.63C147.25 17.63 147.25 17.52 147.34 17.48C147.771 17.2695 148.228 17.1181 148.7 17.03C148.79 17.03 148.86 17.03 148.84 17.14C148.767 17.48 148.693 17.8133 148.62 18.14L148.63 18.09ZM149.08 16.09C149.078 16.1088 149.071 16.1267 149.06 16.142C149.049 16.1574 149.035 16.1697 149.017 16.1777C149 16.1858 148.982 16.1893 148.963 16.1879C148.944 16.1866 148.926 16.1804 148.91 16.17L147.79 15.63C147.7 15.63 147.7 15.52 147.79 15.48C148.221 15.2695 148.678 15.1181 149.15 15.03C149.24 15.03 149.3 15.03 149.29 15.14C149.21 15.51 149.14 15.82 149.07 16.15L149.08 16.09ZM150.88 18.02C150.876 18.0364 150.868 18.0516 150.857 18.0646C150.846 18.0775 150.833 18.0877 150.817 18.0945C150.802 18.1013 150.785 18.1044 150.768 18.1036C150.751 18.1028 150.735 18.0982 150.72 18.09L149.6 17.55C149.52 17.55 149.51 17.44 149.6 17.4C150.048 17.2078 150.518 17.0734 151 17C151.1 17 151.16 17 151.14 17.11C151 17.43 150.94 17.75 150.87 18.08L150.88 18.02ZM151.19 16.02L150.07 15.48C149.98 15.48 149.98 15.37 150.07 15.33C150.505 15.12 150.965 14.9687 151.44 14.88C151.53 14.88 151.59 14.88 151.58 14.99C151.5 15.3 151.43 15.62 151.36 15.99C151.357 16.0079 151.349 16.0247 151.337 16.0388C151.326 16.0529 151.311 16.0639 151.294 16.0708C151.277 16.0778 151.259 16.0804 151.241 16.0785C151.222 16.0766 151.205 16.0703 151.19 16.06V16.02ZM152.73 19.52C152.728 19.5388 152.721 19.5567 152.71 19.5721C152.699 19.5874 152.685 19.5997 152.667 19.6077C152.65 19.6158 152.632 19.6193 152.613 19.6179C152.594 19.6166 152.576 19.6104 152.56 19.6L151.44 19.06C151.36 19.06 151.36 18.95 151.44 18.91C151.874 18.6982 152.335 18.5468 152.81 18.46C152.9 18.46 152.96 18.46 152.94 18.57C152.87 18.92 152.8 19.24 152.73 19.56V19.52ZM153.18 17.46C153.178 17.4788 153.171 17.4967 153.16 17.512C153.149 17.5274 153.135 17.5397 153.117 17.5477C153.1 17.5558 153.082 17.5593 153.063 17.5579C153.044 17.5566 153.026 17.5504 153.01 17.54L151.89 17C151.81 17 151.8 16.89 151.89 16.85C152.325 16.6412 152.786 16.4899 153.26 16.4C153.35 16.4 153.42 16.4 153.39 16.51C153.32 16.87 153.24 17.18 153.18 17.51V17.46ZM153.51 15.37L152.39 14.83C152.31 14.83 152.3 14.72 152.39 14.68C152.825 14.4706 153.286 14.3193 153.76 14.23C153.86 14.23 153.92 14.23 153.9 14.34C153.83 14.65 153.75 14.97 153.68 15.29C153.69 15.3126 153.692 15.3379 153.686 15.3619C153.68 15.3859 153.666 15.4071 153.646 15.4221C153.627 15.4371 153.603 15.4451 153.578 15.4447C153.553 15.4443 153.529 15.4356 153.51 15.42V15.37ZM155.07 18.83C155.068 18.8488 155.061 18.8667 155.05 18.882C155.039 18.8974 155.025 18.9097 155.007 18.9177C154.99 18.9258 154.972 18.9293 154.953 18.9279C154.934 18.9266 154.916 18.9204 154.9 18.91L153.79 18.37C153.71 18.37 153.71 18.26 153.79 18.22C154.225 18.0126 154.686 17.8647 155.16 17.78C155.25 17.78 155.31 17.78 155.29 17.89C155.21 18.24 155.13 18.55 155.07 18.88V18.83ZM155.51 16.83C155.507 16.8473 155.5 16.8636 155.49 16.8777C155.48 16.8918 155.466 16.9033 155.451 16.9111C155.435 16.9189 155.418 16.9229 155.4 16.9227C155.383 16.9225 155.365 16.9182 155.35 16.91L154.23 16.37C154.15 16.37 154.14 16.26 154.23 16.22C154.664 16.0084 155.125 15.857 155.6 15.77C155.69 15.77 155.76 15.77 155.74 15.88C155.65 16.25 155.58 16.56 155.51 16.89V16.83ZM155.82 14.83L154.71 14.29C154.62 14.29 154.62 14.19 154.71 14.14C155.141 13.9289 155.598 13.7775 156.07 13.69C156.17 13.69 156.23 13.69 156.21 13.8C156.13 14.11 156.06 14.43 155.99 14.75C156 14.7726 156.002 14.7979 155.996 14.8219C155.99 14.8459 155.976 14.8671 155.956 14.8821C155.937 14.8971 155.913 14.9051 155.888 14.9047C155.863 14.9043 155.839 14.8956 155.82 14.88V14.83ZM157.45 18.33C157.448 18.3488 157.441 18.3667 157.43 18.382C157.419 18.3974 157.405 18.4097 157.387 18.4177C157.37 18.4258 157.352 18.4293 157.333 18.4279C157.314 18.4266 157.296 18.4204 157.28 18.41L156.16 17.87C156.08 17.87 156.07 17.76 156.16 17.72C156.594 17.5093 157.055 17.358 157.53 17.27C157.62 17.27 157.69 17.27 157.67 17.38C157.59 17.74 157.52 18 157.45 18.38V18.33ZM157.89 16.33C157.888 16.3488 157.881 16.3667 157.87 16.382C157.859 16.3974 157.845 16.4097 157.827 16.4177C157.81 16.4258 157.792 16.4293 157.773 16.4279C157.754 16.4266 157.736 16.4204 157.72 16.41L156.6 15.87C156.51 15.87 156.51 15.76 156.6 15.72C157.034 15.5071 157.495 15.3556 157.97 15.27C158.06 15.27 158.12 15.27 158.11 15.38C158 15.74 158 16.06 157.89 16.39V16.33ZM158.17 14.43L157.06 13.89C156.98 13.89 156.97 13.78 157.06 13.74C157.494 13.5311 157.955 13.3831 158.43 13.3C158.51 13.3 158.58 13.3 158.56 13.41C158.48 13.71 158.41 14.03 158.34 14.41C158.338 14.4288 158.331 14.4467 158.32 14.462C158.309 14.4774 158.295 14.4897 158.277 14.4977C158.26 14.5058 158.242 14.5093 158.223 14.5079C158.204 14.5066 158.186 14.5004 158.17 14.49V14.43ZM159.77 18.08C159.766 18.0964 159.758 18.1116 159.747 18.1246C159.736 18.1375 159.723 18.1477 159.707 18.1545C159.692 18.1613 159.675 18.1644 159.658 18.1636C159.641 18.1628 159.625 18.1582 159.61 18.15L158.49 17.61C158.4 17.61 158.4 17.5 158.49 17.46C158.921 17.2486 159.378 17.0972 159.85 17.01C159.94 17.01 160.01 17.01 159.98 17.12C159.91 17.5 159.83 17.81 159.77 18.14V18.08ZM160.2 16.08C160.197 16.0973 160.19 16.1136 160.18 16.1277C160.17 16.1418 160.156 16.1533 160.141 16.1611C160.125 16.1689 160.108 16.1729 160.09 16.1727C160.073 16.1725 160.055 16.1682 160.04 16.16L158.92 15.62C158.83 15.62 158.83 15.51 158.92 15.47C159.351 15.2598 159.809 15.1085 160.28 15.02C160.38 15.02 160.44 15.02 160.41 15.13C160.34 15.52 160.27 15.83 160.2 16.16V16.08ZM160.64 14.14C160.64 14.1586 160.635 14.1768 160.625 14.1926C160.615 14.2084 160.601 14.2211 160.585 14.2294C160.568 14.2377 160.549 14.2413 160.531 14.2396C160.513 14.2379 160.495 14.2311 160.48 14.22L159.36 13.68C159.27 13.68 159.27 13.57 159.36 13.53C159.794 13.3177 160.255 13.1663 160.73 13.08C160.82 13.08 160.88 13.08 160.86 13.19C160.78 13.58 160.71 13.9 160.64 14.22V14.14ZM162.06 18.14C162.058 18.1588 162.051 18.1767 162.04 18.192C162.029 18.2074 162.015 18.2197 161.997 18.2277C161.98 18.2358 161.962 18.2393 161.943 18.2379C161.924 18.2366 161.906 18.2304 161.89 18.22L160.78 17.67C160.69 17.67 160.69 17.56 160.78 17.52C161.212 17.3113 161.669 17.1601 162.14 17.07C162.24 17.07 162.3 17.07 162.28 17.18C162.2 17.58 162.13 17.9 162.06 18.22V18.14ZM162.51 16.14C162.506 16.1576 162.498 16.174 162.486 16.188C162.475 16.202 162.461 16.2133 162.444 16.221C162.428 16.2287 162.41 16.2326 162.392 16.2324C162.374 16.2323 162.356 16.228 162.34 16.22L161.22 15.68C161.13 15.68 161.13 15.57 161.22 15.53C161.652 15.3213 162.109 15.1701 162.58 15.08C162.68 15.08 162.74 15.08 162.72 15.19C162.64 15.58 162.57 15.9 162.5 16.23L162.51 16.14ZM162.96 14.14C162.958 14.1588 162.951 14.1767 162.94 14.192C162.929 14.2074 162.915 14.2197 162.897 14.2277C162.88 14.2358 162.862 14.2393 162.843 14.2379C162.824 14.2366 162.806 14.2304 162.79 14.22L161.68 13.68C161.59 13.68 161.59 13.57 161.68 13.53C162.114 13.3184 162.575 13.167 163.05 13.08C163.14 13.08 163.2 13.08 163.18 13.19C163.09 13.62 163 13.94 162.95 14.27L162.96 14.14ZM164.73 16.52C164.727 16.5373 164.72 16.5536 164.71 16.5677C164.7 16.5819 164.686 16.5933 164.671 16.6011C164.655 16.6089 164.638 16.6129 164.62 16.6127C164.603 16.6125 164.585 16.6082 164.57 16.6L163.45 16.06C163.36 16.06 163.36 15.95 163.45 15.91C163.885 15.7006 164.346 15.5493 164.82 15.46C164.92 15.46 164.97 15.46 164.96 15.57C164.86 16 164.79 16.32 164.72 16.65L164.73 16.52ZM165.18 14.52C165.176 14.5364 165.168 14.5516 165.157 14.5646C165.146 14.5775 165.133 14.5877 165.117 14.5945C165.102 14.6013 165.085 14.6044 165.068 14.6036C165.051 14.6028 165.035 14.5982 165.02 14.59L163.9 14.05C163.81 14.05 163.81 13.94 163.9 13.9C164.331 13.6906 164.789 13.5393 165.26 13.45C165.35 13.45 165.42 13.45 165.39 13.56C165.31 14 165.24 14.31 165.17 14.63L165.18 14.52ZM167.29 15.25C167.29 15.2686 167.285 15.2868 167.275 15.3026C167.265 15.3184 167.251 15.3311 167.235 15.3394C167.218 15.3477 167.199 15.3513 167.181 15.3496C167.162 15.3479 167.145 15.3411 167.13 15.33L166 14.91C165.91 14.91 165.91 14.8 166 14.76C166.431 14.5486 166.888 14.3972 167.36 14.31C167.45 14.31 167.52 14.31 167.49 14.42L167.29 15.25Z" fill="#00472D"/>
</g>
<defs>
<clipPath id="clip0">
<rect width="189.02" height="29.17" fill="white"/>
</clipPath>
</defs>
</svg>
