<svg width="178" height="35" viewBox="0 0 178 35" fill="none" xmlns="http://www.w3.org/2000/svg">
<g clip-path="url(#clip0)">
<path d="M77.73 12H80.35V8.19C80.35 4.67 82.15 2.41 86.12 2.41H99.34V0.200001H86.34C83.05 0.200001 77.73 1.07 77.73 8.2V12Z" fill="black"/>
<path d="M81.1 12H83.65V8.19C83.65 5.76 84.65 5.19 87.36 5.19H99.36V3.07H87.2C85.5 3.07 81.1 3.01 81.1 8.19V12Z" fill="black"/>
<path d="M84.36 9.85V12H91.24C91.24 12 99.34 12.18 99.34 6H88.41V8H96.22C96.22 8 95.9 10 91.34 10L84.36 9.85Z" fill="black"/>
<path d="M7.40002 29.07V27.57H13.49V32.26C12.6036 32.891 11.6301 33.3895 10.6 33.74C9.61312 34.0673 8.57977 34.2328 7.54002 34.23C6.21449 34.2499 4.90058 33.9803 3.69002 33.44C2.59869 32.9637 1.68537 32.1554 1.08002 31.13C0.487097 30.1034 0.183018 28.9354 0.200016 27.75C0.192815 26.5468 0.495899 25.362 1.08002 24.31C1.64096 23.2653 2.52504 22.4304 3.60002 21.93C4.78942 21.3907 6.08434 21.1242 7.39002 21.15C8.34885 21.1374 9.30273 21.2896 10.21 21.6C10.9707 21.8379 11.6587 22.2644 12.21 22.84C12.725 23.4388 13.0976 24.1465 13.3 24.91L11.54 25.32C11.3737 24.7666 11.102 24.2505 10.74 23.8C10.3688 23.3936 9.90103 23.0875 9.38002 22.91C8.7392 22.6784 8.06127 22.5665 7.38002 22.58C6.61847 22.5624 5.8599 22.681 5.14002 22.93C4.57457 23.127 4.05675 23.4404 3.62002 23.85C3.24837 24.2101 2.94364 24.6333 2.72002 25.1C2.35189 25.8994 2.16412 26.77 2.17002 27.65C2.13621 28.6351 2.36393 29.6115 2.83002 30.48C3.26523 31.2366 3.93601 31.8302 4.74002 32.17C5.58048 32.5431 6.49045 32.734 7.41002 32.73C8.22506 32.7302 9.03388 32.5881 9.80002 32.31C10.432 32.1054 11.0289 31.8052 11.57 31.42V29.07H7.40002Z" fill="black"/>
<path d="M18.56 21.36H16.65V34.02H18.56V21.36Z" fill="black"/>
<path d="M22.16 31C22.7175 32.0047 23.5594 32.8222 24.58 33.35C25.6987 33.9366 26.947 34.2323 28.21 34.21C29.4176 34.2195 30.6114 33.9527 31.7 33.43C32.7488 32.9369 33.6213 32.1342 34.2 31.13C34.7969 30.0832 35.1009 28.8949 35.08 27.69C35.0998 26.503 34.8103 25.3312 34.24 24.29C33.6698 23.3032 32.821 22.5065 31.8 22C30.6888 21.435 29.4564 21.15 28.21 21.17C26.3743 21.084 24.5784 21.7233 23.21 22.95C22.5565 23.587 22.047 24.3566 21.7158 25.207C21.3846 26.0573 21.2394 26.9688 21.29 27.88C21.3099 28.9771 21.6094 30.0509 22.16 31ZM24.76 23.79C25.7299 22.975 26.9635 22.5413 28.23 22.57C29.1245 22.5574 30.0067 22.778 30.79 23.21C31.5332 23.6196 32.1359 24.2433 32.52 25C32.9298 25.8363 33.1322 26.759 33.11 27.69C33.153 28.3796 33.0525 29.0707 32.815 29.7196C32.5775 30.3685 32.2081 30.9611 31.73 31.46C31.2601 31.9066 30.706 32.2552 30.0999 32.4852C29.4938 32.7153 28.8479 32.8223 28.2 32.8C26.9078 32.8397 25.6526 32.3649 24.71 31.48C24.2378 31.0117 23.8698 30.449 23.6303 29.8285C23.3908 29.2081 23.285 28.5441 23.32 27.88C23.2463 27.1366 23.3381 26.3862 23.5888 25.6825C23.8395 24.9788 24.2429 24.3393 24.77 23.81" fill="black"/>
<path d="M41.68 34L36.12 21.36H38.12L41.86 30.56C42.16 31.2933 42.4133 31.9833 42.62 32.63C42.84 31.9633 43.1 31.2733 43.4 30.56L47.3 21.36H49.25L43.62 34H41.68Z" fill="black"/>
<path d="M49.91 34L51.46 30.18H57.55L59.2 34H61.37L55.5 21.36H53.39L47.89 34H49.91ZM53.6 25.09C53.9361 24.3001 54.207 23.4841 54.41 22.65C54.6567 23.3167 54.99 24.1967 55.41 25.29L56.9 28.81H52L53.6 25.09Z" fill="black"/>
<path d="M62.85 34.02V21.36H64.81L72.41 31.32V21.36H74.23V34.02H72.28L64.68 24.06V34.02H62.85Z" fill="black"/>
<path d="M77.38 34.02V21.36H79.33L86.93 31.32V21.36H88.75V34.02H86.81L79.2 24.06V34.02H77.38Z" fill="black"/>
<path d="M94.17 21.36H92.26V34.02H94.17V21.36Z" fill="black"/>
<path d="M103.17 34.02V21.36H112.87V22.86H105.08V26.8H111.83V28.29H105.08V34.02H103.17Z" fill="black"/>
<path d="M114.72 34L116.27 30.18H122.36L124 34H126.17L120.3 21.34H118.19L112.7 34H114.72ZM118.41 25.09C118.745 24.2997 119.016 23.4837 119.22 22.65C119.467 23.3167 119.8 24.1967 120.22 25.29L121.71 28.81H116.8L118.41 25.09Z" fill="black"/>
<path d="M129.51 28.17H132.84C133.55 28.147 134.259 28.2176 134.95 28.38C135.399 28.4982 135.799 28.7576 136.09 29.12C136.359 29.4731 136.504 29.9058 136.5 30.35C136.507 30.7075 136.418 31.0602 136.242 31.3715C136.066 31.6828 135.81 31.9413 135.5 32.12C135.156 32.2977 134.784 32.4128 134.4 32.46C133.969 32.5102 133.534 32.5303 133.1 32.52H129.52L129.51 28.17ZM133.09 34C133.869 34.0141 134.647 33.9437 135.41 33.79C135.971 33.6781 136.506 33.4645 136.99 33.16C137.414 32.8586 137.76 32.461 138 32C138.285 31.4935 138.434 30.9213 138.43 30.34C138.442 29.6355 138.193 28.9515 137.73 28.42C137.198 27.8397 136.499 27.438 135.73 27.27C136.334 27.0351 136.86 26.6369 137.25 26.12C137.574 25.6754 137.749 25.1399 137.75 24.59C137.741 23.9901 137.542 23.4086 137.18 22.93C136.789 22.3898 136.246 21.9788 135.62 21.75C134.767 21.462 133.87 21.3299 132.97 21.36H127.6V34H133.09ZM129.51 22.83H132.39C133.125 22.803 133.86 22.8634 134.58 23.01C134.98 23.1021 135.334 23.3323 135.58 23.66C135.808 23.9809 135.927 24.3664 135.92 24.76C135.935 25.1625 135.803 25.5567 135.55 25.87C135.264 26.1919 134.882 26.4128 134.46 26.5C133.861 26.6204 133.25 26.6707 132.64 26.65H129.53L129.51 22.83Z" fill="black"/>
<path d="M143.35 21.36H141.44V34.02H143.35V21.36Z" fill="black"/>
<path d="M147.13 34L148.68 30.18H154.77L156.42 34H158.59L152.72 21.34H150.61L145.11 34H147.13ZM150.82 25.09C151.156 24.2999 151.426 23.4839 151.63 22.65C151.877 23.3167 152.21 24.1967 152.63 25.29L154.12 28.81H149.21L150.82 25.09Z" fill="black"/>
<path d="M160.08 34.02V21.36H162.03L169.63 31.32V21.36H171.45V34.02H169.5L161.9 24.06V34.02H160.08Z" fill="black"/>
<path d="M176.87 21.36H174.96V34.02H176.87V21.36Z" fill="black"/>
</g>
<defs>
<clipPath id="clip0">
<rect width="177.04" height="34.17" fill="white"/>
</clipPath>
</defs>
</svg>
