<?xml version="1.0" encoding="utf-8"?>
<!-- Generator: Adobe Illustrator 22.0.1, SVG Export Plug-In . SVG Version: 6.00 Build 0)  -->
<svg version="1.1" id="Слой_1" xmlns="http://www.w3.org/2000/svg" xmlns:xlink="http://www.w3.org/1999/xlink" x="0px" y="0px"
	 viewBox="0 0 102 81.6" style="enable-background:new 0 0 102 81.6;" xml:space="preserve">
<style type="text/css">
	.st0{fill:#FECC1D;}
	.st1{fill:#312F2F;}
</style>
<g>
	<polygon class="st0" points="74.6,0 27.4,0 3.9,40.8 27.4,81.6 74.6,81.6 98.1,40.8 	"/>
	<g>
		<g>
			<path class="st1" d="M40.8,33.7c0-3.7-3-6.8-6.8-6.8s-6.8,3-6.8,6.8c0,3.7,3,6.8,6.8,6.8C37.7,40.5,40.8,37.5,40.8,33.7z"/>
			<rect x="31.6" y="38.5" class="st1" width="4.8" height="19.8"/>
			<path class="st1" d="M40.8,62.1c0-3.7-3-6.8-6.8-6.8s-6.8,3-6.8,6.8c0,3.7,3,6.8,6.8,6.8C37.7,68.8,40.8,65.8,40.8,62.1z"/>
		</g>
		<g>
			<path class="st1" d="M57.8,19.5c0-3.7-3-6.8-6.8-6.8c-3.7,0-6.8,3-6.8,6.8s3,6.8,6.8,6.8C54.8,26.3,57.8,23.3,57.8,19.5z"/>
			<rect x="48.6" y="24.3" class="st1" width="4.8" height="19.8"/>
			<path class="st1" d="M57.8,47.9c0-3.7-3-6.8-6.8-6.8c-3.7,0-6.8,3-6.8,6.8c0,3.7,3,6.8,6.8,6.8C54.8,54.6,57.8,51.6,57.8,47.9z"
				/>
		</g>
		<path class="st1" d="M74.8,33.7c0-3.7-3-6.8-6.8-6.8c-3.7,0-6.8,3-6.8,6.8c0,3.7,3,6.8,6.8,6.8S74.8,37.5,74.8,33.7z"/>
		<rect x="65.6" y="38.5" class="st1" width="4.8" height="19.8"/>
		<path class="st1" d="M74.8,58.3c0-3.7-3-6.8-6.8-6.8c-3.7,0-6.8,3-6.8,6.8c0,3.7,3,6.8,6.8,6.8S74.8,62.1,74.8,58.3z"/>
	</g>
</g>
</svg>
