<svg width="149" height="26" viewBox="0 0 149 26" fill="none" xmlns="http://www.w3.org/2000/svg">
<g clip-path="url(#clip0)">
<path d="M19.4 4.3C17.5 2.8 15.2 2.1 12.8 2.1C6.80001 2.1 2.00001 6.9 2.00001 12.8C2.00001 18.7 6.80001 23.5 12.7 23.5C15.1 23.5 17.4 22.7 19.3 21.2L20.5 22.7C15.1 27 7.10001 26.1 2.90001 20.6C-1.29999 15.1 -0.499989 7.2 5.00001 2.9C7.20001 1.2 10 0.2 12.8 0.2C15.7 0.2 18.5 1.2 20.8 3L19.4 4.3Z" fill="black"/>
<path d="M43 0.2H41.1V25H43V0.2Z" fill="black"/>
<path d="M52.5 26.1L44.8 9.6H47L52.5 21.6L58 9.6H60.2L52.5 26.1Z" fill="black"/>
<path d="M64.3 9.6H62.4V25H64.3V9.6Z" fill="black"/>
<path d="M63.3 2.5C63.9075 2.5 64.4 2.00751 64.4 1.4C64.4 0.792486 63.9075 0.3 63.3 0.3C62.6925 0.3 62.2 0.792486 62.2 1.4C62.2 2.00751 62.6925 2.5 63.3 2.5Z" fill="black"/>
<path d="M67.7 25V9.6H69.6V11C70.7 9.7 72.3 9 74 9.1C77.4 9.1 80.1 11.8 80.2 15.2V25H78.3V15.4C78.3 13 76.4 11 74 10.9H73.9C71.7 10.9 69.8 12.6 69.7 14.8V25H67.7Z" fill="black"/>
<path d="M89.1 0.2V25H90.8V14.4L92.7 12.5L101.5 25H103.8L93.9 10.9L103.9 0.2H101.4L90.8 11.5V0.2H89.1Z" fill="black"/>
<path d="M108.6 0.2H106.7V25H108.6V0.2Z" fill="black"/>
<path d="M132.6 9.6H130.7V25H132.6V9.6Z" fill="black"/>
<path d="M131.7 2.5C132.308 2.5 132.8 2.00751 132.8 1.4C132.8 0.792486 132.308 0.3 131.7 0.3C131.092 0.3 130.6 0.792486 130.6 1.4C130.6 2.00751 131.092 2.5 131.7 2.5Z" fill="black"/>
<path d="M136.1 25V9.6H138V11C139.1 9.7 140.7 9 142.4 9.1C145.8 9.1 148.5 11.8 148.6 15.2V25H146.7V15.4C146.7 13 144.8 11 142.4 10.9H142.3C140.1 10.9 138.2 12.6 138.1 14.8V25H136.1Z" fill="black"/>
<path d="M113.5 15.5C114.4 12.1 117.8 10.1 121.2 11C123.4 11.6 125.1 13.3 125.7 15.5H113.5ZM127.8 17.1C127.8 12.6 124.1 8.9 119.6 8.9C115.1 8.9 111.4 12.6 111.4 17.1C111.4 21.6 115.1 25.3 119.6 25.3C122.7 25.3 125.6 23.5 127 20.7L125.3 19.9C124.2 22.1 122 23.4 119.6 23.4C116.1 23.5 113.3 20.7 113.2 17.2C113.2 17.1 113.2 17.1 113.2 17L127.8 17.1Z" fill="black"/>
<path d="M35.9 9.6V12.4C35.5 11.8 34.9 11.3 34.4 10.9C30.8 8.1 25.6 8.8 22.8 12.4C20 16 20.7 21.2 24.3 24C27.9 26.8 33.1 26.1 35.9 22.5V25H37.6V9.6H35.9ZM29.3 23.9C25.7 23.9 22.8 21 22.8 17.4C22.8 13.8 25.7 10.9 29.3 10.9C32.9 10.9 35.8 13.8 35.8 17.4C35.8 21 32.9 23.9 29.3 23.9Z" fill="black"/>
</g>
<defs>
<clipPath id="clip0">
<rect width="148.7" height="25.6" fill="white"/>
</clipPath>
</defs>
</svg>
