<svg width="133" height="37" viewBox="0 0 133 37" fill="none" xmlns="http://www.w3.org/2000/svg">
<g clip-path="url(#clip0)">
<path d="M2.90997 30.08V6.42001C3.01887 5.12025 2.81306 3.81339 2.30997 2.61001C2.04838 2.28143 1.70703 2.0253 1.31843 1.86601C0.929825 1.70672 0.50691 1.64957 0.0899658 1.70001V0.920006H8.78997V1.70001C8.37374 1.65249 7.95227 1.71205 7.56551 1.87306C7.17875 2.03406 6.83952 2.29117 6.57997 2.62001C6.08067 3.82071 5.88159 5.12503 5.99997 6.42001V31.25C5.98743 32.2592 6.09485 33.2662 6.31997 34.25C6.5333 34.7567 6.80663 35.01 7.13997 35.01H10.87C12.46 35.01 13.77 33.1 14.81 31.56C15.73 30.2 15.98 25.66 16.43 23.25L17.02 23.5L17.09 35.59H0.0899658V34.8C0.506194 34.8475 0.927662 34.788 1.31442 34.627C1.70118 34.466 2.04041 34.2088 2.29997 33.88C2.81452 32.6797 3.02739 31.3716 2.91997 30.07L2.90997 30.08ZM27.7 36.4C24.9 36.4 22.5266 34.6167 20.58 31.05C18.5345 27.0295 17.5338 22.5589 17.67 18.05C17.535 13.632 18.5333 9.25294 20.57 5.33001C22.5033 1.84334 24.88 0.100006 27.7 0.100006C30.52 0.100006 32.8933 1.85001 34.82 5.35001C36.8513 9.25008 37.853 13.6043 37.73 18C37.8641 22.5075 36.8671 26.9768 34.83 31C32.8966 34.5867 30.52 36.38 27.7 36.38V36.4ZM27.7 35.46C29.7 35.46 31.3 33.13 32.43 30.05C33.6888 26.1788 34.2673 22.1187 34.14 18.05C34.2828 14.0898 33.7242 10.1356 32.49 6.37001C31.34 3.35001 29.74 0.860006 27.7 0.860006C25.66 0.860006 24.05 3.31001 22.94 6.27001C21.6977 10.0515 21.129 14.0218 21.26 18C21.1227 22.0232 21.6705 26.0405 22.88 29.88C24.03 33.04 25.64 35.42 27.7 35.42V35.46ZM42.08 30.08V6.42001C42.1489 5.13831 41.9443 3.85661 41.48 2.66001C40.99 1.66001 39.25 1.83001 38.17 1.83001V0.920006H48.37C54.77 0.920006 57.16 5.28001 57.08 9.32001C57 14 54 17 49.28 17.88C52.28 19.75 54.17 22.05 54.42 25.18L54.77 29.64C54.93 31.64 53.28 35.1 56.95 35.19C59.15 35.25 58.66 29.97 58.6 27.32L59.4 27.44C58.89 30.6 61.4 37.92 53.61 35.58C48.23 33.58 54.8 19.36 47.29 18.03H45.14V30.03C45.0311 31.3298 45.2369 32.6366 45.74 33.84C46.14 34.45 47.74 34.76 48.74 34.76V35.54H38.44V34.8C39.5 34.8 41.05 34.49 41.44 33.88C41.9545 32.6797 42.1674 31.3716 42.06 30.07L42.08 30.08ZM45.14 2.36001V17.13H46.9C47.8699 17.154 48.8343 16.9762 49.7318 16.6077C50.6294 16.2392 51.4405 15.6881 52.1138 14.9895C52.7871 14.2908 53.3077 13.4598 53.6428 12.5493C53.9778 11.6387 54.1199 10.6684 54.06 9.70001C54.06 2.32001 48.89 1.70001 47.85 1.70001C47.3437 1.70616 46.8401 1.77331 46.35 1.90001C45.9243 1.98663 45.5156 2.14199 45.14 2.36001V2.36001ZM64 30.08C64.0884 31.4202 63.8624 32.7626 63.34 34C62.9678 34.3316 62.5321 34.5842 62.0594 34.7423C61.5867 34.9004 61.0868 34.9609 60.59 34.92V35.57L70.38 35.71V35.06C69.8718 35.0819 69.3646 34.9992 68.8898 34.8168C68.415 34.6345 67.9828 34.3564 67.62 34C67.1213 32.7498 66.916 31.4019 67.02 30.06V6.42001C66.9125 5.11844 67.1254 3.81036 67.64 2.61001C68.0121 2.2784 68.4478 2.02586 68.9205 1.86772C69.3933 1.70957 69.8932 1.64911 70.39 1.69001V0.920006H60.59V1.70001C61.67 1.70001 62.95 2.01001 63.35 2.62001C63.8685 3.81613 64.0915 5.11953 64 6.42001V30.08ZM76.91 30.08V6.42001C77.0189 5.12025 76.8131 3.81339 76.31 2.61001C75.86 2.00001 74 1.70001 73 1.70001V0.920006H84.19C88.33 0.920006 91.29 4.44001 91.19 9.12001C91.04 14.12 88.49 15.62 85.19 17.46C90.36 19.2 92.71 20.94 92.71 26.46C92.71 29.93 89.36 35.59 85.42 35.59H73V34.67C74.06 34.67 75.88 34.36 76.29 33.75C76.8098 32.6007 77.0234 31.3363 76.91 30.08ZM79.93 2.32001V17C81.0397 17.1522 82.1605 17.2091 83.28 17.17C86 16.73 88.06 12.07 88.04 9.64001C88 3.39001 84.31 0.500006 79.93 2.32001ZM79.8 18L79.93 34.26C80.4119 34.4559 80.9154 34.5936 81.43 34.67C82.0108 34.7741 82.5999 34.8243 83.19 34.82C88.05 34.76 89.19 29.6 89.37 26.66C89.56 22.66 86.65 17.95 83.27 17.95C82.45 17.95 80.14 17.95 79.81 17.95L79.8 18ZM96.63 30.08V6.42001C96.7198 5.03361 96.5047 3.64437 96 2.35001C95.6 1.74001 94.18 1.57001 93.1 1.57001V0.920006H103.16V1.57001C102.1 1.57001 100.69 1.74001 100.27 2.35001C99.7607 3.6465 99.5488 5.04075 99.65 6.43001V31.25C99.65 31.75 99.51 34.67 100.8 34.67H104.53C108.53 34.67 109.53 26.96 109.59 23.02L110.18 23.27V35.59H93.81V34.94C96.73 34.94 96.63 32.33 96.63 30.08V30.08ZM112.16 23.3C112.16 28.05 112.77 36.45 119.89 36.4C127.58 36.34 127.89 28.53 127.89 23.4V6.40001C127.841 5.10143 128.052 3.8062 128.51 2.59001C129 1.44001 131 1.70001 132 1.70001V0.920006H121.24V1.70001C122.32 1.70001 125.38 1.44001 125.91 2.62001C126.355 3.83904 126.559 5.1331 126.51 6.43001V23.43C126.51 30.68 125.29 34.59 120.86 34.59C116.43 34.59 115.21 30.84 115.21 23.43V6.43001C115.106 5.12857 115.319 3.82126 115.83 2.62001C116.56 1.51001 118.61 1.70001 119.67 1.70001V0.920006H108.52V1.70001C109.6 1.70001 110.97 1.57001 111.52 2.62001C111.999 3.83019 112.204 5.13129 112.12 6.43001L112.16 23.3Z" fill="#1B1B1B"/>
</g>
<defs>
<clipPath id="clip0">
<rect width="132.15" height="36.58" fill="white"/>
</clipPath>
</defs>
</svg>
