<svg width="156" height="38" viewBox="0 0 156 38" fill="none" xmlns="http://www.w3.org/2000/svg">
<g clip-path="url(#clip0)">
<path d="M31.3 1.80001H30.3V36H31.3V1.80001Z" fill="black"/>
<path d="M33.7 1.80001H32.7V36H33.7V1.80001Z" fill="black"/>
<path d="M36.1 1.80001H35.1V36H36.1V1.80001Z" fill="black"/>
<path d="M6.8 1.80001H5.8V36H6.8V1.80001Z" fill="black"/>
<path d="M2 1.80001H1V36H2V1.80001Z" fill="black"/>
<path d="M4.4 1.80001H3.4V36H4.4V1.80001Z" fill="black"/>
<path d="M21.6105 0.458252L7.82006 14.2448L8.52706 14.952L22.3175 1.16545L21.6105 0.458252Z" fill="black"/>
<path d="M23.3107 2.15425L9.52229 15.9427L10.2294 16.6498L24.0178 2.86135L23.3107 2.15425Z" fill="black"/>
<path d="M25.0132 3.78582L11.9319 16.8672L12.639 17.5743L25.7203 4.49292L25.0132 3.78582Z" fill="black"/>
<path d="M11.9 18.3L26.4 32.6L27.1 31.9L12.6 17.6L11.9 18.3Z" fill="black"/>
<path d="M9.5 19.3L24.7 34.3L25.4 33.6L10.2 18.6L9.5 19.3Z" fill="black"/>
<path d="M7.8 21L23 36L23.7 35.3L8.5 20.3L7.8 21Z" fill="black"/>
<path d="M53.2 30.2H37.8V31.2H53.2V30.2Z" fill="black"/>
<path d="M53.2 32.6H37.8V33.6H53.2V32.6Z" fill="black"/>
<path d="M53.2 35H37.8V36H53.2V35Z" fill="black"/>
<path d="M53.2 1.80001H37.8V2.80001H53.2V1.80001Z" fill="black"/>
<path d="M53.2 4.20001H37.8V5.20001H53.2V4.20001Z" fill="black"/>
<path d="M53.2 6.60001H37.8V7.60001H53.2V6.60001Z" fill="black"/>
<path d="M52.3 15.4H37.8V16.4H52.3V15.4Z" fill="black"/>
<path d="M52.3 17.8H37.8V18.8H52.3V17.8Z" fill="black"/>
<path d="M52.3 20.2H37.8V21.2H52.3V20.2Z" fill="black"/>
<path d="M57.9 1.80001H56.9V36H57.9V1.80001Z" fill="black"/>
<path d="M60.3 1.80001H59.3V36H60.3V1.80001Z" fill="black"/>
<path d="M62.7 1.80001H61.7V36H62.7V1.80001Z" fill="black"/>
<path d="M82.2 1.80001H81.2V36H82.2V1.80001Z" fill="black"/>
<path d="M84.6 1.80001H83.6V36H84.6V1.80001Z" fill="black"/>
<path d="M87 1.80001H86V36H87V1.80001Z" fill="black"/>
<path d="M63.8 6.00001L79.3 31.9L80.1 31.4L64.7 5.50001L63.8 6.00001Z" fill="black"/>
<path d="M117.9 1.80001H90.5V2.80001H117.9V1.80001Z" fill="black"/>
<path d="M117.9 4.20001H90.5V5.20001H117.9V4.20001Z" fill="black"/>
<path d="M117.9 6.60001H90.5V7.60001H117.9V6.60001Z" fill="black"/>
<path d="M118.1 30.2H90.7V31.2H118.1V30.2Z" fill="black"/>
<path d="M118.1 32.6H90.7V33.6H118.1V32.6Z" fill="black"/>
<path d="M118.1 35H90.7V36H118.1V35Z" fill="black"/>
<path d="M109.438 8.63958L93.0356 25.0466L93.7428 25.7536L110.145 9.34658L109.438 8.63958Z" fill="black"/>
<path d="M111.141 10.3377L94.736 26.7424L95.4431 27.4495L111.848 11.0448L111.141 10.3377Z" fill="black"/>
<path d="M112.843 12.0356L96.4363 28.438L97.1433 29.1452L113.55 12.7428L112.843 12.0356Z" fill="black"/>
<path d="M136.7 0.600013C126.6 0.600013 118.5 8.80001 118.5 18.8C118.5 28.9 126.7 37 136.7 37C146.8 37 154.9 28.8 154.9 18.8C154.9 8.70001 146.8 0.600013 136.7 0.600013ZM136.7 36C127.2 36 119.5 28.3 119.5 18.8C119.5 9.30001 127.2 1.60001 136.7 1.60001C146.2 1.60001 153.9 9.30001 153.9 18.8C153.9 28.3 146.2 36 136.7 36Z" fill="black"/>
<path d="M136.7 3.00001C128 3.00001 120.9 10.1 120.9 18.8C120.9 27.5 128 34.6 136.7 34.6C145.4 34.6 152.5 27.5 152.5 18.8C152.5 10.1 145.4 3.00001 136.7 3.00001ZM136.7 33.6C128.5 33.6 121.9 27 121.9 18.8C121.9 10.6 128.5 4.00001 136.7 4.00001C144.9 4.00001 151.5 10.6 151.5 18.8C151.5 27 144.9 33.6 136.7 33.6Z" fill="black"/>
<path d="M136.7 5.30001C129.3 5.30001 123.2 11.3 123.2 18.8C123.2 26.2 129.2 32.3 136.7 32.3C144.1 32.3 150.2 26.3 150.2 18.8C150.2 11.4 144.1 5.30001 136.7 5.30001ZM136.7 31.2C129.9 31.2 124.3 25.7 124.3 18.8C124.3 12 129.8 6.40001 136.7 6.40001C143.5 6.40001 149.1 11.9 149.1 18.8C149.1 25.6 143.5 31.2 136.7 31.2Z" fill="black"/>
<path d="M132.5 13.4C132.7 13.5 132.8 13.6 133 13.6C133.2 13.6 133.3 13.6 133.5 13.6C133.7 13.6 133.8 13.5 134 13.4C134.1 13.3 134.2 13.2 134.3 13.1C134.4 13 134.4 12.9 134.5 12.8C134.5 12.7 134.5 12.6 134.5 12.4C134.5 12.3 134.5 12.1 134.4 12C134.4 11.9 134.3 11.8 134.3 11.7C134.3 11.6 134.2 11.6 134.2 11.5L133.7 10.8L133.6 10.7C133.5 10.7 133.5 10.7 133.4 10.7L130.3 12.9C130.3 12.9 130.3 12.9 130.3 13C130.3 13 130.3 13 130.3 13.1C130.3 13.1 130.3 13.2 130.4 13.2L130.5 13.3C130.5 13.3 130.5 13.3 130.6 13.4C130.6 13.4 130.6 13.4 130.7 13.4L131.9 12.6L132.2 13C132.2 13.1 132.3 13.3 132.5 13.4ZM133.5 11.4L133.8 11.8C133.9 11.9 133.9 12 133.9 12C133.9 12.1 134 12.2 134 12.3C134 12.4 134 12.5 133.9 12.6C133.8 12.7 133.7 12.8 133.6 12.9C133.5 13 133.4 13 133.3 13C133.2 13 133.1 13 133 13C132.9 13 132.8 12.9 132.7 12.9C132.6 12.8 132.5 12.7 132.4 12.6L132.1 12.2L133.5 11.4Z" fill="black"/>
<path d="M136.6 15.1C136.6 15 136.6 15 136.5 14.9L136.4 14.8C136.4 14.7 136.3 14.7 136.3 14.7L136.2 14.6C136.2 14.6 136.2 14.6 136.1 14.6C136.1 14.6 136.1 14.6 136 14.6L132.1 15.7H132C132 15.7 132 15.7 132 15.8C132 15.8 132 15.8 132 15.9C132 15.9 132 16 132.1 16L132.2 16.1C132.2 16.1 132.2 16.1 132.3 16.2C132.3 16.2 132.3 16.2 132.4 16.2C132.4 16.2 132.4 16.2 132.5 16.2L133.5 15.9L134.5 17.3L133.9 18.2C133.9 18.2 133.9 18.2 133.9 18.3C133.9 18.3 133.9 18.3 133.9 18.4C133.9 18.4 133.9 18.5 134 18.5C134 18.6 134.1 18.6 134.1 18.6C134.1 18.6 134.1 18.6 134.2 18.7C134.2 18.7 134.2 18.7 134.3 18.7C134.3 18.7 134.3 18.7 134.4 18.6L136.6 15.1ZM134.7 16.9L133.9 15.7L136 15.1L134.7 16.9Z" fill="black"/>
<path d="M137.6 20.3C137.6 20.2 137.6 20.2 137.6 20.1C137.7 20.2 137.8 20.2 137.9 20.3C138 20.3 138.1 20.4 138.2 20.4C138.3 20.4 138.4 20.4 138.5 20.4C138.6 20.4 138.7 20.3 138.8 20.2C138.9 20.1 139 20 139.1 19.9C139.2 19.8 139.2 19.7 139.2 19.6C139.2 19.5 139.2 19.4 139.2 19.2C139.2 19.1 139.1 18.9 139.1 18.8C139.1 18.8 139 18.7 139 18.6C139 18.5 138.9 18.5 138.9 18.4L138.4 17.7L138.3 17.6C138.2 17.6 138.2 17.6 138.1 17.6L135 19.8C135 19.8 135 19.8 135 19.9C135 19.9 135 19.9 135 20C135 20 135 20.1 135.1 20.1L135.2 20.2C135.2 20.2 135.2 20.2 135.3 20.3C135.3 20.3 135.3 20.3 135.4 20.3L136.8 19.3L137 19.6C137.1 19.7 137.1 19.8 137.1 19.9C137.1 20 137.1 20.1 137.1 20.2C137.1 20.3 137.1 20.4 137 20.5C137 20.6 136.9 20.7 136.8 20.8L136.2 21.7C136.2 21.7 136.2 21.7 136.2 21.8C136.2 21.8 136.2 21.8 136.2 21.9V22C136.2 22 136.2 22.1 136.3 22.1C136.3 22.2 136.4 22.2 136.4 22.2C136.4 22.2 136.4 22.2 136.5 22.3C136.5 22.3 136.5 22.3 136.6 22.3C136.6 22.3 136.6 22.3 136.7 22.2L136.8 22.1L137.3 21.3C137.4 21.2 137.4 21.1 137.5 21C137.5 20.9 137.6 20.8 137.6 20.8C137.6 20.5 137.6 20.4 137.6 20.3ZM137.1 19L138.2 18.2L138.5 18.6C138.6 18.7 138.6 18.8 138.6 18.8C138.6 18.9 138.7 18.9 138.7 19C138.8 19.2 138.8 19.3 138.7 19.4C138.7 19.5 138.6 19.6 138.4 19.7C138.3 19.8 138.2 19.8 138.1 19.8C138 19.8 137.9 19.8 137.8 19.8C137.7 19.8 137.6 19.7 137.5 19.7C137.4 19.6 137.3 19.5 137.2 19.4L137.1 19Z" fill="black"/>
<path d="M141.1 21.5C141.1 21.4 141.1 21.4 141.1 21.4C141.1 21.4 141.1 21.3 141 21.3L140.9 21.2C140.9 21.2 140.9 21.2 140.8 21.1C140.8 21.1 140.8 21.1 140.7 21.1L137.5 23.4C137.5 23.4 137.5 23.4 137.5 23.5C137.5 23.5 137.5 23.5 137.5 23.6C137.5 23.6 137.5 23.7 137.6 23.7L137.7 23.8C137.7 23.8 137.7 23.8 137.8 23.9C137.8 23.9 137.8 23.9 137.9 23.9L141.1 21.5Z" fill="black"/>
<path d="M143.1 24.4C143.1 24.3 143 24.2 143 24.2C143 24.1 142.9 24 142.9 24C142.8 23.9 142.7 23.7 142.6 23.6C142.5 23.5 142.3 23.4 142.2 23.4C142.1 23.4 141.9 23.4 141.8 23.4C141.7 23.4 141.5 23.5 141.4 23.6C141.3 23.7 141.2 23.8 141.1 23.9C141 24 141 24.1 141 24.3C141 24.4 141 24.5 141 24.7C141 24.8 141 25 141 25.1C141 25.2 141 25.3 141.1 25.5C141.1 25.6 141.1 25.7 141.1 25.8C141.1 25.9 141.1 26 141 26.1C141 26.2 140.9 26.3 140.8 26.3C140.7 26.4 140.6 26.4 140.5 26.4C140.4 26.4 140.3 26.4 140.2 26.4C140.1 26.4 140 26.3 139.9 26.3C139.8 26.2 139.7 26.2 139.7 26.1C139.6 26 139.5 25.8 139.5 25.7C139.5 25.6 139.4 25.5 139.4 25.4C139.4 25.3 139.4 25.2 139.4 25.2C139.4 25.1 139.4 25.1 139.4 25.1C139.4 25.1 139.4 25.1 139.3 25.1C139.3 25.1 139.3 25.1 139.2 25.1C139.2 25.1 139.1 25.1 139.1 25.2C139 25.2 139 25.3 139 25.3V25.4C139 25.4 139 25.5 139 25.6C139 25.7 139 25.8 139 25.8C139 25.9 139.1 26 139.1 26.1C139.1 26.2 139.2 26.3 139.3 26.4C139.4 26.6 139.5 26.7 139.7 26.8C139.8 26.9 140 27 140.1 27C140.3 27 140.4 27 140.6 27C140.8 27 140.9 26.9 141.1 26.8C141.2 26.7 141.3 26.6 141.4 26.5C141.5 26.4 141.5 26.3 141.5 26.1C141.5 26 141.5 25.9 141.5 25.7C141.5 25.6 141.5 25.4 141.4 25.3C141.4 25.2 141.4 25 141.3 24.9C141.3 24.8 141.3 24.7 141.3 24.6C141.3 24.5 141.3 24.4 141.4 24.3C141.4 24.2 141.5 24.1 141.6 24.1C141.7 24.1 141.7 24 141.8 24C141.9 24 141.9 24 142 24C142.1 24 142.1 24.1 142.2 24.1C142.3 24.2 142.3 24.2 142.4 24.3C142.5 24.4 142.5 24.5 142.6 24.6C142.6 24.7 142.7 24.8 142.7 24.9C142.7 25 142.7 25 142.7 25.1C142.7 25.2 142.7 25.2 142.7 25.2C142.7 25.2 142.7 25.2 142.8 25.2C142.8 25.2 142.8 25.2 142.9 25.2C142.9 25.2 143 25.2 143 25.1C143 25.1 143.1 25.1 143.1 25C143.1 25 143.1 25 143.1 24.9V24.8C143.2 24.6 143.2 24.5 143.1 24.4Z" fill="black"/>
</g>
<defs>
<clipPath id="clip0">
<rect width="155.6" height="37.3" fill="white"/>
</clipPath>
</defs>
</svg>
