<?xml version="1.0" encoding="utf-8"?>
<!-- Generator: Adobe Illustrator 22.0.1, SVG Export Plug-In . SVG Version: 6.00 Build 0)  -->
<svg version="1.1"
	 id="Layer_1" xmlns:cc="http://creativecommons.org/ns#" xmlns:dc="http://purl.org/dc/elements/1.1/" xmlns:rdf="http://www.w3.org/1999/02/22-rdf-syntax-ns#" xmlns:svg="http://www.w3.org/2000/svg"
	 xmlns="http://www.w3.org/2000/svg" xmlns:xlink="http://www.w3.org/1999/xlink" x="0px" y="0px" viewBox="0 0 444.4 444.4"
	 style="enable-background:new 0 0 444.4 444.4;" xml:space="preserve">
<style type="text/css">
	.st0{fill:#FECC1D;}
	.st1{fill:#312F2F;}
</style>
<g>
	<polygon class="st0" points="330.4,34.7 114,34.7 5.7,222.2 114,409.7 330.4,409.7 438.7,222.2 	"/>
	<g>
		<g>
			<path class="st1" d="M175.2,189.7c0-17.2-14-31.2-31.2-31.2s-31.2,14-31.2,31.2s14,31.2,31.2,31.2S175.2,206.9,175.2,189.7z"/>
			<rect x="133" y="211.6" class="st1" width="22.1" height="91.1"/>
			<path class="st1" d="M175.2,319.9c0-17.2-14-31.2-31.2-31.2s-31.2,14-31.2,31.2c0,17.2,14,31.2,31.2,31.2S175.2,337,175.2,319.9z
				"/>
		</g>
		<g>
			<path class="st1" d="M253.5,124.5c0-17.2-14-31.2-31.2-31.2s-31.2,14-31.2,31.2s14,31.2,31.2,31.2
				C239.5,155.7,253.5,141.7,253.5,124.5z"/>
			<rect x="211.3" y="146.4" class="st1" width="22.1" height="91.1"/>
			<path class="st1" d="M253.5,254.7c0-17.2-14-31.2-31.2-31.2s-31.2,14-31.2,31.2c0,17.2,14,31.2,31.2,31.2
				C239.5,285.8,253.5,271.8,253.5,254.7z"/>
		</g>
		<path class="st1" d="M331.5,189.7c0-17.2-14-31.2-31.2-31.2c-17.2,0-31.2,14-31.2,31.2s14,31.2,31.2,31.2S331.5,206.9,331.5,189.7
			z"/>
		<rect x="289.3" y="211.6" class="st1" width="22.1" height="91.1"/>
		<path class="st1" d="M331.5,302.7c0-17.2-14-31.2-31.2-31.2c-17.2,0-31.2,14-31.2,31.2s14,31.2,31.2,31.2
			C317.5,333.8,331.5,319.9,331.5,302.7z"/>
	</g>
</g>
</svg>
