<?xml version="1.0" standalone="no"?>
<!DOCTYPE svg PUBLIC "-//W3C//DTD SVG 20010904//EN"
 "http://www.w3.org/TR/2001/REC-SVG-20010904/DTD/svg10.dtd">
<svg version="1.0" xmlns="http://www.w3.org/2000/svg"
 width="400.000000pt" height="400.000000pt" viewBox="0 0 400.000000 400.000000"
 preserveAspectRatio="xMidYMid meet">
<metadata>
Created by potrace 1.11, written by Peter Selinger 2001-2013
</metadata>
<g transform="translate(0.000000,400.000000) scale(0.100000,-0.100000)"
fill="#000000" stroke="none">
<path d="M758 3870 c-55 -34 16 -130 288 -389 159 -152 275 -227 452 -296 57
-22 71 -32 66 -44 -14 -34 -44 -148 -54 -200 -5 -31 -17 -84 -27 -117 l-17
-61 -55 13 c-31 7 -132 32 -226 54 -93 23 -177 43 -185 45 -8 2 -71 17 -140
33 -127 31 -169 41 -545 132 -116 28 -231 56 -257 62 -26 6 -50 9 -53 6 -3 -3
8 -72 23 -154 82 -425 108 -544 119 -548 6 -3 49 -8 95 -11 46 -3 97 -8 113
-10 17 -2 88 -9 160 -15 72 -6 141 -12 155 -15 14 -2 61 -7 105 -10 75 -6 149
-15 151 -18 1 -1 -82 -170 -183 -376 -101 -206 -182 -379 -180 -385 3 -6 116
-49 253 -94 137 -46 261 -88 276 -94 l26 -10 -63 -86 c-44 -59 -60 -89 -52
-93 7 -4 77 -31 156 -60 105 -39 146 -59 151 -74 4 -11 22 -65 40 -120 72
-224 170 -366 319 -461 2 -2 -11 -18 -28 -36 -56 -59 -139 -172 -166 -227
l-27 -53 21 -21 c20 -20 24 -21 93 -9 113 20 333 132 463 237 22 18 47 31 55
30 43 -7 206 -16 374 -21 l188 -6 97 -66 c185 -126 398 -206 460 -173 25 14
26 31 4 79 -17 37 -106 163 -136 193 -15 15 -12 18 28 39 132 68 231 226 280
447 76 347 55 520 -133 1073 l-50 145 25 29 c71 85 135 281 127 389 -2 24 -15
90 -28 147 -14 58 -27 119 -30 135 -3 17 -8 40 -10 51 -2 12 -7 39 -10 60 -11
71 -38 168 -57 205 l-18 36 78 31 c166 68 276 149 497 367 164 162 234 248
234 287 0 69 -179 39 -627 -108 -97 -32 -247 -117 -390 -223 l-32 -24 -64 31
c-127 60 -262 91 -437 99 -194 9 -341 -17 -559 -97 l-105 -39 -41 33 c-55 44
-179 127 -240 159 -67 36 -131 59 -284 106 -277 85 -425 114 -463 91z m710
-1583 c9 -22 35 -68 59 -104 24 -36 43 -69 43 -73 0 -5 -20 -50 -44 -101 -48
-102 -103 -235 -131 -314 -10 -27 -21 -54 -25 -58 -6 -7 -262 101 -277 117 -3
3 73 142 168 310 149 261 175 302 183 283 4 -12 15 -39 24 -60z"/>
</g>
</svg>
